
<svg width="19" height="21" viewBox="0 0 19 21" fill="none" xmlns="http://www.w3.org/2000/svg">
<path d="M12.9724 4.74992C12.9724 7.0445 11.3372 8.74984 9.50023 8.74984C7.66322 8.74984 6.02808 7.0445 6.02808 4.74992C6.02808 2.45534 7.66322 0.75 9.50023 0.75C11.3372 0.75 12.9724 2.45534 12.9724 4.74992Z" stroke="#1376BC" stroke-width="1.5"/>
<mask id="path-2-inside-1_356_320" fill="white">
<path fill-rule="evenodd" clip-rule="evenodd" d="M6.01057 9.10702C2.49037 10.4979 0 13.9309 0 17.9456V18.7666C0 19.4791 0.577598 20.0567 1.2901 20.0567H17.7096C18.4221 20.0567 18.9997 19.4791 18.9997 18.7666V17.9456C18.9997 13.9308 16.5092 10.4977 12.9889 9.10693C12.0588 10.0092 10.8373 10.5566 9.49969 10.5566C8.16209 10.5566 6.94071 10.0092 6.01057 9.10702Z"/>
</mask>
<path d="M6.01057 9.10702L7.05494 8.03032L6.35991 7.35615L5.45938 7.71196L6.01057 9.10702ZM12.9889 9.10693L13.5401 7.71186L12.6395 7.35608L11.9445 8.03026L12.9889 9.10693ZM1.5 17.9456C1.5 14.5672 3.59475 11.6743 6.56176 10.5021L5.45938 7.71196C1.38598 9.32136 -1.5 13.2946 -1.5 17.9456H1.5ZM1.5 18.7666V17.9456H-1.5V18.7666H1.5ZM1.2901 18.5567C1.40603 18.5567 1.5 18.6506 1.5 18.7666H-1.5C-1.5 20.3075 -0.250832 21.5567 1.2901 21.5567V18.5567ZM17.7096 18.5567H1.2901V21.5567H17.7096V18.5567ZM17.4997 18.7666C17.4997 18.6506 17.5937 18.5567 17.7096 18.5567V21.5567C19.2505 21.5567 20.4997 20.3075 20.4997 18.7666H17.4997ZM17.4997 17.9456V18.7666H20.4997V17.9456H17.4997ZM12.4377 10.502C15.4048 11.6742 17.4997 14.5671 17.4997 17.9456H20.4997C20.4997 13.2945 17.6136 9.32121 13.5401 7.71186L12.4377 10.502ZM11.9445 8.03026C11.2691 8.68538 10.4138 9.0566 9.49969 9.0566V12.0566C11.2609 12.0566 12.8484 11.333 14.0333 10.1836L11.9445 8.03026ZM9.49969 9.0566C8.58562 9.0566 7.7303 8.6854 7.05494 8.03032L4.96619 10.1837C6.15112 11.3331 7.73856 12.0566 9.49969 12.0566V9.0566Z" fill="#1376BC" mask="url(#path-2-inside-1_356_320)"/>
</svg>
