
<svg width="30" height="30" viewBox="0 0 30 30" fill="none" xmlns="http://www.w3.org/2000/svg">
<path fill-rule="evenodd" clip-rule="evenodd" d="M14.8 28.1088C22.0397 28.1088 27.9086 22.2399 27.9086 15.0002C27.9086 7.76053 22.0397 1.89162 14.8 1.89162C7.56034 1.89162 1.69143 7.76053 1.69143 15.0002C1.69143 22.2399 7.56034 28.1088 14.8 28.1088ZM14.8 29.8002C22.9738 29.8002 29.6 23.174 29.6 15.0002C29.6 6.82638 22.9738 0.200195 14.8 0.200195C6.62618 0.200195 0 6.82638 0 15.0002C0 23.174 6.62618 29.8002 14.8 29.8002Z" fill="#1B2943"/>
<path fill-rule="evenodd" clip-rule="evenodd" d="M8.69069 10.4409C7.76564 10.4415 6.90147 11.0074 6.75921 12.1454C6.70127 12.6089 6.27859 12.9377 5.81512 12.8797C5.35166 12.8218 5.0229 12.3991 5.08084 11.9357C5.34572 9.81663 7.05526 8.75058 8.68959 8.74951C10.3272 8.74845 12.0296 9.81837 12.2581 11.9505C12.3078 12.4149 11.9717 12.8317 11.5073 12.8815C11.0428 12.9312 10.626 12.5951 10.5763 12.1306C10.455 10.999 9.61248 10.4403 8.69069 10.4409Z" fill="#1B2943"/>
<path fill-rule="evenodd" clip-rule="evenodd" d="M20.5305 10.4409C19.6055 10.4415 18.7413 11.0074 18.599 12.1454C18.5411 12.6089 18.1184 12.9377 17.655 12.8797C17.1915 12.8218 16.8627 12.3991 16.9207 11.9357C17.1856 9.81663 18.8951 8.75058 20.5294 8.74951C22.167 8.74845 23.8695 9.81837 24.0979 11.9505C24.1477 12.4149 23.8115 12.8317 23.3471 12.8815C22.8827 12.9312 22.4659 12.5951 22.4161 12.1306C22.2949 10.999 21.4523 10.4403 20.5305 10.4409Z" fill="#1B2943"/>
<path fill-rule="evenodd" clip-rule="evenodd" d="M5.64885 17.1592C6.09124 17.0093 6.57134 17.2465 6.72118 17.6889C9.33755 25.4134 20.2628 25.4134 22.8792 17.6889C23.029 17.2465 23.5091 17.0093 23.9515 17.1592C24.3939 17.309 24.631 17.7891 24.4812 18.2315C21.346 27.4878 8.25434 27.4878 5.11915 18.2315C4.96931 17.7891 5.20646 17.309 5.64885 17.1592Z" fill="#1B2943"/>
</svg>
