<svg width="25" height="25" viewBox="0 0 25 25" fill="none" xmlns="http://www.w3.org/2000/svg">
<path d="M15.9724 6.74992C15.9724 9.0445 14.3372 10.7498 12.5002 10.7498C10.6632 10.7498 9.02808 9.0445 9.02808 6.74992C9.02808 4.45534 10.6632 2.75 12.5002 2.75C14.3372 2.75 15.9724 4.45534 15.9724 6.74992Z" stroke="#1376BC" stroke-width="1.5"/>
<mask id="path-2-inside-1_29_2027" fill="white">
<path fill-rule="evenodd" clip-rule="evenodd" d="M9.01057 11.107C5.49037 12.4979 3 15.9309 3 19.9456V20.7666C3 21.4791 3.5776 22.0567 4.2901 22.0567H20.7096C21.4221 22.0567 21.9997 21.4791 21.9997 20.7666V19.9456C21.9997 15.9308 19.5092 12.4977 15.9889 11.1069C15.0588 12.0092 13.8373 12.5566 12.4997 12.5566C11.1621 12.5566 9.94071 12.0092 9.01057 11.107Z"/>
</mask>
<path d="M9.01057 11.107L10.0549 10.0303L9.35991 9.35615L8.45938 9.71196L9.01057 11.107ZM15.9889 11.1069L16.5401 9.71186L15.6395 9.35608L14.9445 10.0303L15.9889 11.1069ZM4.5 19.9456C4.5 16.5672 6.59475 13.6743 9.56176 12.5021L8.45938 9.71196C4.38598 11.3214 1.5 15.2946 1.5 19.9456H4.5ZM4.5 20.7666V19.9456H1.5V20.7666H4.5ZM4.2901 20.5567C4.40603 20.5567 4.5 20.6506 4.5 20.7666H1.5C1.5 22.3075 2.74917 23.5567 4.2901 23.5567V20.5567ZM20.7096 20.5567H4.2901V23.5567H20.7096V20.5567ZM20.4997 20.7666C20.4997 20.6506 20.5937 20.5567 20.7096 20.5567V23.5567C22.2505 23.5567 23.4997 22.3075 23.4997 20.7666H20.4997ZM20.4997 19.9456V20.7666H23.4997V19.9456H20.4997ZM15.4377 12.502C18.4048 13.6742 20.4997 16.5671 20.4997 19.9456H23.4997C23.4997 15.2945 20.6136 11.3212 16.5401 9.71186L15.4377 12.502ZM14.9445 10.0303C14.2691 10.6854 13.4138 11.0566 12.4997 11.0566V14.0566C14.2609 14.0566 15.8484 13.333 17.0333 12.1836L14.9445 10.0303ZM12.4997 11.0566C11.5856 11.0566 10.7303 10.6854 10.0549 10.0303L7.96619 12.1837C9.15112 13.3331 10.7386 14.0566 12.4997 14.0566V11.0566Z" fill="#1376BC" mask="url(#path-2-inside-1_29_2027)"/>
</svg>
