<svg width="30" height="30" viewBox="0 0 30 30" fill="none" xmlns="http://www.w3.org/2000/svg">
<path d="M14.9995 18.9295C19.5092 18.9295 23.5447 20.9908 26.206 24.2231C28.2673 21.7166 29.5157 18.5037 29.5157 15.0005C29.5157 6.9876 23.0124 0.484375 14.9995 0.484375C6.98662 0.484375 0.483398 6.9876 0.483398 15.0005C0.483398 18.5037 1.72211 21.7166 3.79308 24.2231C6.45437 20.9908 10.4899 18.9295 14.9995 18.9295Z" stroke="#0B2340" stroke-miterlimit="10" stroke-linecap="round" stroke-linejoin="round"/>
<path d="M14.9994 29.5165C19.5091 29.5165 23.5446 27.4553 26.2059 24.223C23.5446 20.9907 19.5091 18.9294 14.9994 18.9294C10.4897 18.9294 6.45426 20.9907 3.79297 24.223C6.45426 27.4553 10.4897 29.5165 14.9994 29.5165Z" stroke="#0B2340" stroke-miterlimit="10" stroke-linecap="round" stroke-linejoin="round"/>
<path d="M8.93164 10.2198C8.93164 13.5682 11.651 16.2876 14.9994 16.2876C18.3478 16.2876 21.0671 13.5682 21.0671 10.2198C21.0671 6.87145 18.3478 4.1521 14.9994 4.1521C11.651 4.1521 8.93164 6.87145 8.93164 10.2198Z" stroke="#0B2340" stroke-miterlimit="10" stroke-linecap="round" stroke-linejoin="round"/>
</svg>
