<svg width="25" height="25" viewBox="0 0 25 25" fill="none" xmlns="http://www.w3.org/2000/svg">
<path fill-rule="evenodd" clip-rule="evenodd" d="M13.5634 4.76256C12.88 4.07915 11.772 4.07915 11.0886 4.76256L5.15536 10.6958C4.86247 10.9887 4.86247 11.4635 5.15536 11.7564C5.44826 12.0493 5.92313 12.0493 6.21602 11.7564L12.1492 5.82322C12.2469 5.72559 12.4051 5.72559 12.5028 5.82322L18.436 11.7564C18.7289 12.0493 19.2037 12.0493 19.4966 11.7564C19.7895 11.4635 19.7895 10.9887 19.4966 10.6958L13.5634 4.76256ZM4.00096 9.01246H5.843L4.36076 10.5125H4.00096C3.06702 10.5125 2.36014 11.3567 2.52432 12.2761L3.66631 18.6713C3.79406 19.3867 4.41625 19.9076 5.14295 19.9076H19.5075C20.2539 19.9076 20.8868 19.3587 20.9924 18.6198L21.906 12.2246C22.0248 11.393 21.4404 10.642 20.635 10.5275L19.0669 9.01246H20.421C22.2467 9.01246 23.6491 10.6294 23.3909 12.4367L22.4773 18.8319C22.2662 20.3098 21.0004 21.4076 19.5075 21.4076H5.14295C3.68954 21.4076 2.44517 20.3658 2.18967 18.935L1.04768 12.5398C0.719321 10.701 2.13308 9.01246 4.00096 9.01246ZM16.3019 10.5125H8.57835L10.0606 9.01246H14.7493L16.3019 10.5125Z" fill="#1376BC"/>
</svg>
