<svg width="30" height="30" viewBox="0 0 30 30" fill="none" xmlns="http://www.w3.org/2000/svg">
<path fill-rule="evenodd" clip-rule="evenodd" d="M12.7422 25.7409C12.7422 25.3665 13.0457 25.063 13.4201 25.063H21.5555C21.9299 25.063 22.2334 25.3665 22.2334 25.7409C22.2334 26.1154 21.9299 26.4189 21.5555 26.4189H13.4201C13.0457 26.4189 12.7422 26.1154 12.7422 25.7409Z" fill="#1B2943"/>
<path fill-rule="evenodd" clip-rule="evenodd" d="M5.83057 5.7417H29.8004L29.6837 6.52021C28.032 17.5312 22.4845 20.4415 19.5073 20.3175H8.44674L5.83057 5.7417ZM7.45149 7.09759L9.58093 18.9616H19.5374L19.5528 18.9623C21.5015 19.0509 26.4874 17.084 28.2171 7.09759H7.45149Z" fill="#1B2943"/>
<path fill-rule="evenodd" clip-rule="evenodd" d="M0.30795 8.76455C0.51042 8.4496 0.929874 8.35841 1.24483 8.56088L3.13908 9.77861C4.61497 10.7274 6.52521 10.6584 7.92885 9.60572C9.78577 8.21303 12.3129 8.12181 14.2654 9.37699L16.1596 10.5947C16.4746 10.7972 16.5657 11.2166 16.3633 11.5316C16.1608 11.8465 15.7413 11.9377 15.4264 11.7353L13.5322 10.5175C12.0563 9.56874 10.146 9.63769 8.74238 10.6904C6.88547 12.0831 4.35837 12.1743 2.40587 10.9192L0.511619 9.70143C0.196666 9.49896 0.10548 9.0795 0.30795 8.76455Z" fill="#1B2943"/>
<path fill-rule="evenodd" clip-rule="evenodd" d="M0.30795 12.1547C0.51042 11.8397 0.929874 11.7485 1.24483 11.951L3.13908 13.1688C4.61497 14.1175 6.52521 14.0486 7.92885 12.9959C9.78577 11.6032 12.3129 11.5119 14.2654 12.7671L16.1596 13.9849C16.4746 14.1873 16.5657 14.6068 16.3633 14.9217C16.1608 15.2367 15.7413 15.3279 15.4264 15.1254L13.5322 13.9077C12.0563 12.9589 10.146 13.0278 8.74238 14.0806C6.88547 15.4733 4.35837 15.5645 2.40587 14.3093L0.511619 13.0916C0.196666 12.8891 0.10548 12.4696 0.30795 12.1547Z" fill="#1B2943"/>
<path fill-rule="evenodd" clip-rule="evenodd" d="M0.30795 15.5438C0.51042 15.2289 0.929874 15.1377 1.24483 15.3402L3.13908 16.5579C4.61497 17.5067 6.52521 17.4377 7.92885 16.385C9.78577 14.9923 12.3129 14.9011 14.2654 16.1563L16.1596 17.374C16.4746 17.5765 16.5657 17.9959 16.3633 18.3109C16.1608 18.6258 15.7413 18.717 15.4264 18.5146L13.5322 17.2968C12.0563 16.348 10.146 16.417 8.74238 17.4697C6.88547 18.8624 4.35837 18.9536 2.40587 17.6985L0.511619 16.4807C0.196666 16.2783 0.10548 15.8588 0.30795 15.5438Z" fill="#1B2943"/>
<path fill-rule="evenodd" clip-rule="evenodd" d="M9.35226 18.9614C9.72668 18.9614 10.0302 19.265 10.0302 19.6394V22.0122C10.0302 22.3866 9.72668 22.6901 9.35226 22.6901C8.97784 22.6901 8.67432 22.3866 8.67432 22.0122V19.6394C8.67432 19.265 8.97784 18.9614 9.35226 18.9614Z" fill="#1B2943"/>
<path fill-rule="evenodd" clip-rule="evenodd" d="M9.69169 28.4523C11.1894 28.4523 12.4035 27.2382 12.4035 25.7405C12.4035 24.2428 11.1894 23.0287 9.69169 23.0287C8.19402 23.0287 6.97991 24.2428 6.97991 25.7405C6.97991 27.2382 8.19402 28.4523 9.69169 28.4523ZM9.69169 29.8082C11.9382 29.8082 13.7594 27.987 13.7594 25.7405C13.7594 23.494 11.9382 21.6729 9.69169 21.6729C7.44518 21.6729 5.62402 23.494 5.62402 25.7405C5.62402 27.987 7.44518 29.8082 9.69169 29.8082Z" fill="#1B2943"/>
<path fill-rule="evenodd" clip-rule="evenodd" d="M25.2845 28.4523C26.7821 28.4523 27.9962 27.2382 27.9962 25.7405C27.9962 24.2428 26.7821 23.0287 25.2845 23.0287C23.7868 23.0287 22.5727 24.2428 22.5727 25.7405C22.5727 27.2382 23.7868 28.4523 25.2845 28.4523ZM25.2845 29.8082C27.531 29.8082 29.3521 27.987 29.3521 25.7405C29.3521 23.494 27.531 21.6729 25.2845 21.6729C23.038 21.6729 21.2168 23.494 21.2168 25.7405C21.2168 27.987 23.038 29.8082 25.2845 29.8082Z" fill="#1B2943"/>
</svg>
