
<svg width="266" height="48" viewBox="0 0 266 48" fill="none" xmlns="http://www.w3.org/2000/svg">
<g clip-path="url(#clip0_726_22)">
<path d="M9.70013 22.7596C6.92722 27.1156 7.5615 32.9326 11.2078 36.5999C13.2966 38.7027 16.0728 39.8595 19.0217 39.8595C21.9707 39.8595 24.7469 38.7027 26.8357 36.6033C30.4488 32.9627 31.0997 27.1624 28.3766 22.8164L27.2176 20.7838L23.6112 14.9067C23.475 14.6827 23.1529 14.686 23.0167 14.9067L21.2866 17.7449C21.2168 17.8586 21.2168 18.0024 21.2866 18.1127L24.0794 22.666L25.2417 24.7019C27.0947 27.6505 26.6763 31.5586 24.2521 33.999C22.8573 35.4065 21.001 36.1821 19.0251 36.1821C17.0492 36.1821 15.1895 35.4065 13.7947 33.999C11.3539 31.5419 10.9355 27.6371 12.7985 24.7119L23.4783 7.16075C23.6145 6.93676 23.9366 6.93676 24.0728 7.16075L25.9623 10.2397L30.9934 18.447L32.1258 20.4294C33.0291 21.8837 33.6833 23.4482 34.0785 25.093C34.115 25.2502 34.2545 25.3638 34.4172 25.3638H37.4591C37.6783 25.3638 37.8476 25.1599 37.8045 24.9426C37.3462 22.6793 36.4961 20.5331 35.2673 18.5506L34.1349 16.5648L29.1603 8.45452H29.1636L24.0661 0.167013C23.93 -0.0569732 23.6078 -0.0569732 23.4717 0.167013L9.70013 22.7596Z" fill="#0C233F"/>
<path d="M8.07278 39.7591C5.59875 37.2685 4.05123 33.9889 3.66269 30.4519C3.64277 30.2748 3.49665 30.1377 3.31733 30.1377H0.351808C0.145915 30.1377 -0.0168066 30.3149 0.00311845 30.5222C0.421545 35.0219 2.34764 39.1975 5.49248 42.36C9.10889 45.9973 13.9108 48.0031 19.0216 48.0031C24.1324 48.0031 28.9377 46.0006 32.5508 42.3634C35.7388 39.154 37.6881 34.9785 38.0999 30.5255C38.1198 30.3182 37.9538 30.141 37.7512 30.141H34.7658C34.5864 30.141 34.4403 30.2781 34.4204 30.4553C34.0385 33.9622 32.4777 37.2384 29.9705 39.7624C27.0481 42.7043 23.1594 44.3257 19.0249 44.3257C14.8905 44.3257 11.0018 42.7043 8.07942 39.7624" fill="#0C233F"/>
<path d="M16.3054 3.0152L14.562 0.173575C14.4258 -0.050412 14.1037 -0.0470689 13.9676 0.173575L2.84272 18.4502C1.58744 20.446 0.724019 22.6257 0.272383 24.9492C0.229212 25.1665 0.398575 25.3671 0.617751 25.3671H3.64637C3.80909 25.3671 3.94524 25.2534 3.98509 25.0963C4.38027 23.418 5.04112 21.8368 5.95436 20.3825L7.25281 18.1594L16.3054 3.38628C16.3752 3.27261 16.3752 3.12886 16.3054 3.0152Z" fill="#0C233F"/>
<path d="M81.9021 14.0508C78.7407 14.0508 76.6153 14.9902 75.4065 16.9225L75.0977 17.4173C74.9615 17.6346 74.6494 17.6379 74.5099 17.424L74.1911 16.9359C72.9292 14.9969 70.754 14.0541 67.5494 14.0541C61.7446 14.0541 59.1543 17.0261 59.1543 23.6922V37.2351C59.1543 37.429 59.3104 37.5861 59.503 37.5861H62.9434C63.136 37.5861 63.2921 37.429 63.2921 37.2351V23.5518C63.2921 21.0245 63.7802 17.6613 67.9977 17.6613C72.2152 17.6613 72.7067 21.0245 72.7067 23.5518V37.2351C72.7067 37.429 72.8628 37.5861 73.0554 37.5861H76.4958C76.6884 37.5861 76.8445 37.429 76.8445 37.2351V23.5518C76.8445 21.0245 77.3326 17.6613 81.5534 17.6613C85.7742 17.6613 86.2956 21.0245 86.2956 23.5518V37.2351C86.2956 37.429 86.4517 37.5861 86.6443 37.5861H90.0515C90.2441 37.5861 90.4002 37.429 90.4002 37.2351V23.6922C90.4002 16.9392 87.8564 14.0541 81.8988 14.0541" fill="#0C233F"/>
<path d="M102.903 27.5668H113.888C114.081 27.5668 114.237 27.4096 114.237 27.2157V24.3474C114.237 24.1535 114.081 23.9963 113.888 23.9963H102.903C102.71 23.9963 102.554 23.8392 102.554 23.6453V18.5337C102.554 18.3398 102.71 18.1827 102.903 18.1827H114.924C115.117 18.1827 115.273 18.0256 115.273 17.8317V14.9633C115.273 14.7694 115.117 14.6123 114.924 14.6123H98.7652C98.5726 14.6123 98.4165 14.7694 98.4165 14.9633V37.235C98.4165 37.4289 98.5726 37.586 98.7652 37.586H114.924C115.117 37.586 115.273 37.4289 115.273 37.235V34.3666C115.273 34.1727 115.117 34.0156 114.924 34.0156H102.903C102.71 34.0156 102.554 33.8584 102.554 33.6645V27.9245C102.554 27.7306 102.71 27.5734 102.903 27.5734" fill="#0C233F"/>
<path d="M126.661 14.6055H123.22C123.028 14.6055 122.872 14.7626 122.872 14.9565V37.2281C122.872 37.422 123.028 37.5791 123.22 37.5791H138.34C138.533 37.5791 138.689 37.422 138.689 37.2281V34.323C138.689 34.1291 138.533 33.972 138.34 33.972H127.358C127.165 33.972 127.009 33.8148 127.009 33.6209V14.9565C127.009 14.7626 126.853 14.6055 126.661 14.6055Z" fill="#0C233F"/>
<path d="M145.523 37.583H148.96C149.153 37.583 149.309 37.4259 149.309 37.232V14.9604C149.309 14.7665 149.153 14.6094 148.96 14.6094H145.523C145.33 14.6094 145.174 14.7665 145.174 14.9604V37.232C145.174 37.4259 145.33 37.583 145.523 37.583Z" fill="#0C233F"/>
<path d="M168.028 24.5386H168.022L164.591 23.7697C162.197 23.1846 160.905 22.516 160.905 20.6539C160.905 18.5812 162.732 17.3443 165.787 17.3443C168.842 17.3443 170.197 18.6481 170.732 19.9953C170.785 20.1257 170.914 20.2093 171.054 20.2093H174.604C174.826 20.2093 174.989 20.002 174.946 19.7847C174.228 16.0773 171.024 14.0547 165.787 14.0547C160.55 14.0547 156.767 16.5921 156.767 20.5169C156.767 23.5457 158.046 25.712 164.419 27.1362L168.055 27.9385C169.788 28.323 171.396 28.9816 171.396 31.1947C171.396 33.4078 169.493 34.852 166.308 34.852C163.124 34.852 161.377 33.7989 160.676 31.7162C160.626 31.5724 160.497 31.4688 160.344 31.4688H156.794C156.571 31.4688 156.412 31.6727 156.452 31.8934C157.192 35.885 160.716 38.1483 166.308 38.1483C171.901 38.1483 175.534 35.6142 175.534 31.3719C175.534 27.4203 173.71 25.7622 168.028 24.5453" fill="#0C233F"/>
<path d="M192.935 24.5386H192.928L189.498 23.7697C187.103 23.1846 185.811 22.516 185.811 20.6539C185.811 18.5812 187.638 17.3443 190.693 17.3443C193.748 17.3443 195.103 18.6481 195.638 19.9953C195.691 20.1257 195.82 20.2093 195.96 20.2093H199.51C199.732 20.2093 199.895 20.002 199.852 19.7847C199.135 16.0773 195.93 14.0547 190.693 14.0547C185.456 14.0547 181.674 16.5921 181.674 20.5169C181.674 23.5457 182.952 25.712 189.325 27.1362L192.961 27.9385C194.695 28.323 196.302 28.9816 196.302 31.1947C196.302 33.4078 194.399 34.852 191.214 34.852C188.03 34.852 186.283 33.7989 185.582 31.7162C185.532 31.5724 185.403 31.4688 185.25 31.4688H181.7C181.478 31.4688 181.318 31.6727 181.358 31.8934C182.099 35.885 185.622 38.1483 191.218 38.1483C196.813 38.1483 200.443 35.6142 200.443 31.3719C200.443 27.4203 198.62 25.7622 192.938 24.5453" fill="#0C233F"/>
<path d="M222.245 26.6676H211.585C211.392 26.6676 211.236 26.5105 211.236 26.3166V24.1068C211.236 19.7675 213.092 17.658 216.915 17.658C220.737 17.658 222.593 19.7675 222.593 24.1068V26.3166C222.593 26.5105 222.437 26.6676 222.245 26.6676ZM216.915 14.0508C210.216 14.0508 207.098 17.2902 207.098 24.2472V37.2317C207.098 37.4256 207.254 37.5827 207.447 37.5827H210.887C211.08 37.5827 211.236 37.4256 211.236 37.2317V30.706C211.236 30.5121 211.392 30.355 211.585 30.355H222.245C222.437 30.355 222.593 30.5121 222.593 30.706V37.2317C222.593 37.4256 222.749 37.5827 222.942 37.5827H226.382C226.575 37.5827 226.731 37.4256 226.731 37.2317V24.2472C226.731 17.2902 223.613 14.0508 216.915 14.0508Z" fill="#0C233F"/>
<path d="M244.072 14.0508C237.374 14.0508 234.256 17.2902 234.256 24.2472V37.2317C234.256 37.4256 234.412 37.5827 234.605 37.5827H238.045C238.238 37.5827 238.394 37.4256 238.394 37.2317V24.1068C238.394 19.7675 240.25 17.658 244.072 17.658C247.895 17.658 249.751 19.7675 249.751 24.1068V37.2317C249.751 37.4256 249.907 37.5827 250.1 37.5827H253.537C253.729 37.5827 253.885 37.4256 253.885 37.2317V24.2472C253.885 17.2902 250.767 14.0508 244.069 14.0508" fill="#0C233F"/>
<path d="M265.651 14.6055H262.214C262.022 14.6055 261.866 14.7626 261.866 14.9565V37.2281C261.866 37.422 262.022 37.5791 262.214 37.5791H265.651C265.844 37.5791 266 37.422 266 37.2281V14.9598C266 14.7659 265.844 14.6088 265.651 14.6088" fill="#0C233F"/>
</g>
<defs>
<clipPath id="clip0_726_22">
<rect width="266" height="48" fill="white"/>
</clipPath>
</defs>
</svg>
